<?xml version="1.0" encoding="UTF-8"?>
<svg xmlns="http://www.w3.org/2000/svg"
     width="1640" height="926"
     viewBox="0 0 1640 926">
  <path d="M 652 124 L 650 124 L 633 133 L 608 148 L 581 167 L 559 185 L 543 200 L 525 220 L 510 239 L 496 260 L 478 294 L 463 333 L 452 376 L 452 382 L 448 402 L 448 411 L 446 414 L 424 414 L 421 416 L 419 421 L 423 429 L 448 461 L 455 462 L 459 459 L 484 425 L 485 419 L 481 414 L 477 413 L 465 413 L 464 414 L 463 413 L 463 403 L 465 396 L 465 390 L 471 360 L 480 329 L 498 287 L 509 268 L 523 247 L 539 227 L 572 194 L 589 180 L 614 162 L 635 149 L 659 137 Z" fill="#FFFFFF"/>
</svg>
